# xmcd CD database file
#
# Track frame offsets:
#	150
#	21052
#	49722
#	87455
#	114592
#	143657
#	164690
#
# Disc length: 2618 seconds
#
# Revision: 2
# Processed by: cddbd v1.5.2PL0 Copyright (c) Steve Scherf et al.
# Submitted via: CDex 1.51
#
DISCID=580a3807
DTITLE=The Robert Cray Band - Live From Across The Pond (Disc-1)
DYEAR=2006
DGENRE=Blues
TTITLE0=Phone Booth
TTITLE1=Poor Johnny
TTITLE2=One Last Time
TTITLE3=Right Next Door (Because Of Me)
TTITLE4=12 Year Old Boy
TTITLE5=I Guess I Showed Her
TTITLE6=The Things You Do To Me
EXTD=YEAR: 2006
EXTT0=
EXTT1=
EXTT2=
EXTT3=
EXTT4=
EXTT5=
EXTT6=
PLAYORDER=
